<svg width="18" height="19" viewBox="0 0 18 19" fill="none" xmlns="http://www.w3.org/2000/svg">
<path d="M16.0313 12.8047C15.967 12.8413 15.8962 12.8649 15.8228 12.8742C15.7494 12.8834 15.6749 12.8781 15.6036 12.8585C15.5323 12.8389 15.4656 12.8054 15.4072 12.76C15.3488 12.7146 15.3 12.6581 15.2635 12.5938L13.9275 10.2594C13.1508 10.7845 12.2941 11.1801 11.3907 11.4308L11.8034 13.9072C11.8156 13.9801 11.8133 14.0547 11.7966 14.1267C11.7799 14.1987 11.7492 14.2667 11.7063 14.3269C11.6633 14.387 11.6089 14.4381 11.5462 14.4772C11.4835 14.5163 11.4136 14.5427 11.3407 14.5548C11.3107 14.5597 11.2804 14.5623 11.25 14.5625C11.117 14.5623 10.9883 14.5149 10.8868 14.4288C10.7854 14.3427 10.7178 14.2234 10.696 14.0921L10.2903 11.6607C9.43469 11.7798 8.56676 11.7798 7.7112 11.6607L7.30549 14.0921C7.28366 14.2236 7.21583 14.3431 7.1141 14.4293C7.01236 14.5154 6.88334 14.5626 6.75003 14.5625C6.71893 14.5624 6.6879 14.5598 6.65721 14.5548C6.5843 14.5427 6.51449 14.5163 6.45176 14.4772C6.38904 14.4381 6.33464 14.387 6.29168 14.3269C6.24871 14.2667 6.21802 14.1987 6.20135 14.1267C6.18469 14.0547 6.18238 13.9801 6.19456 13.9072L6.6094 11.4308C5.70633 11.1794 4.85004 10.783 4.07393 10.2573L2.74221 12.5938C2.70528 12.6581 2.65603 12.7146 2.59728 12.7599C2.53853 12.8052 2.47142 12.8385 2.3998 12.8579C2.32817 12.8773 2.25343 12.8824 2.17984 12.8729C2.10625 12.8634 2.03524 12.8395 1.97088 12.8026C1.90653 12.7657 1.85007 12.7164 1.80475 12.6577C1.75942 12.5989 1.72611 12.5318 1.70672 12.4602C1.68733 12.3886 1.68224 12.3138 1.69173 12.2402C1.70123 12.1666 1.72512 12.0956 1.76206 12.0313L3.16831 9.57032C2.67436 9.14358 2.22015 8.6729 1.81128 8.16407C1.76028 8.10714 1.72143 8.04041 1.69708 7.96797C1.67274 7.89552 1.66341 7.81887 1.66968 7.74269C1.67594 7.66652 1.69766 7.59242 1.73352 7.52493C1.76937 7.45743 1.8186 7.39794 1.87821 7.3501C1.93782 7.30227 2.00655 7.26708 2.0802 7.24668C2.15386 7.22629 2.23091 7.22112 2.30663 7.2315C2.38235 7.24187 2.45517 7.26757 2.52063 7.30702C2.58609 7.34647 2.64282 7.39884 2.68737 7.46095C3.85456 8.90517 5.89643 10.625 9.00003 10.625C12.1036 10.625 14.1455 8.90306 15.3127 7.46095C15.3567 7.39757 15.4133 7.34393 15.479 7.30337C15.5446 7.26281 15.6179 7.2362 15.6943 7.22518C15.7707 7.21417 15.8485 7.21899 15.923 7.23934C15.9974 7.2597 16.0669 7.29516 16.127 7.34351C16.1872 7.39186 16.2367 7.45207 16.2726 7.5204C16.3085 7.58873 16.3299 7.66371 16.3356 7.74068C16.3413 7.81764 16.331 7.89495 16.3055 7.96779C16.28 8.04063 16.2398 8.10744 16.1874 8.16407C15.7785 8.6729 15.3243 9.14358 14.8303 9.57032L16.2366 12.0313C16.2743 12.0954 16.299 12.1664 16.3091 12.2402C16.3192 12.3139 16.3146 12.3889 16.2955 12.4609C16.2764 12.5328 16.2432 12.6002 16.1978 12.6593C16.1525 12.7183 16.0959 12.7677 16.0313 12.8047Z" fill="white"/>
</svg>
