<svg width="18" height="18" viewBox="0 0 18 18" fill="none" xmlns="http://www.w3.org/2000/svg">
<path d="M5.0625 2.25C4.31658 2.25 3.60121 2.54632 3.07376 3.07376C2.54632 3.60121 2.25 4.31658 2.25 5.0625V12.9375C2.25 13.6834 2.54632 14.3988 3.07376 14.9262C3.60121 15.4537 4.31658 15.75 5.0625 15.75H12.9375C13.6834 15.75 14.3988 15.4537 14.9262 14.9262C15.4537 14.3988 15.75 13.6834 15.75 12.9375V5.0625C15.75 4.31658 15.4537 3.60121 14.9262 3.07376C14.3988 2.54632 13.6834 2.25 12.9375 2.25H5.0625ZM12.2108 7.71075L8.27325 11.6483C8.221 11.7006 8.15893 11.7422 8.09059 11.7706C8.02225 11.7989 7.94899 11.8135 7.875 11.8135C7.80101 11.8135 7.72775 11.7989 7.65941 11.7706C7.59107 11.7422 7.529 11.7006 7.47675 11.6483L5.78925 9.96075C5.73695 9.90845 5.69547 9.84636 5.66716 9.77803C5.63886 9.7097 5.62429 9.63646 5.62429 9.5625C5.62429 9.48854 5.63886 9.4153 5.66716 9.34697C5.69547 9.27864 5.73695 9.21655 5.78925 9.16425C5.89487 9.05863 6.03813 8.99929 6.1875 8.99929C6.26146 8.99929 6.3347 9.01386 6.40303 9.04216C6.47136 9.07047 6.53345 9.11195 6.58575 9.16425L7.875 10.4546L11.4142 6.91425C11.5199 6.80863 11.6631 6.74929 11.8125 6.74929C11.9619 6.74929 12.1051 6.80863 12.2108 6.91425C12.3164 7.01987 12.3757 7.16313 12.3757 7.3125C12.3757 7.46187 12.3164 7.60513 12.2108 7.71075Z" fill="url(#paint0_linear_604_6388)"/>
<defs>
<linearGradient id="paint0_linear_604_6388" x1="9" y1="2.25" x2="9" y2="15.75" gradientUnits="userSpaceOnUse">
<stop stop-color="#7CC1F3"/>
<stop offset="1" stop-color="#D27EEF"/>
</linearGradient>
</defs>
</svg>
