<svg width="102" height="42" viewBox="0 0 102 42" fill="none" xmlns="http://www.w3.org/2000/svg">
<g clip-path="url(#clip0_604_6449)">
<path d="M14.6311 1.38142C10.4346 2.8372 6.81562 5.60034 4.30562 9.26495C1.79562 12.9296 0.526938 17.3025 0.685917 21.7415C0.844897 26.1804 2.42316 30.4514 5.18889 33.927C7.95462 37.4027 11.762 39.8999 16.0519 41.0517C19.5297 41.9491 23.1735 41.9885 26.67 41.1666C29.8374 40.4551 32.7658 38.9332 35.1684 36.75C37.669 34.4083 39.4841 31.4294 40.4184 28.1334C41.4337 24.5492 41.6144 20.78 40.9467 17.115H21.4167V25.2164H32.7272C32.5011 26.5085 32.0167 27.7418 31.303 28.8423C30.5892 29.9428 29.6607 30.8881 28.5731 31.6214C27.1922 32.5354 25.6352 33.1501 24.0023 33.4261C22.3648 33.7307 20.6852 33.7307 19.0477 33.4261C17.3878 33.0833 15.8177 32.3983 14.4375 31.4147C12.2199 29.8449 10.5547 27.6148 9.67968 25.0425C8.7901 22.422 8.7901 19.5813 9.67968 16.9608C10.3026 15.124 11.3322 13.4516 12.6919 12.0684C14.2478 10.4565 16.2177 9.30431 18.3854 8.73823C20.553 8.17214 22.8347 8.21406 24.9802 8.85938C26.6562 9.37363 28.1889 10.2725 29.4558 11.4844C30.7311 10.2156 32.0042 8.9436 33.2752 7.66829C33.9314 6.98251 34.6467 6.32954 35.2931 5.62735C33.3589 3.82765 31.0887 2.42716 28.6125 1.5061C24.1031 -0.131274 19.169 -0.175277 14.6311 1.38142Z" fill="white"/>
<path d="M14.631 1.38139C19.1685 -0.176358 24.1026 -0.133513 28.6124 1.5028C31.0891 2.43012 33.3582 3.83734 35.2897 5.64374C34.6335 6.34592 33.9411 7.00217 33.2718 7.68467C31.9986 8.95561 30.7266 10.2222 29.4557 11.4844C28.1888 10.2725 26.6561 9.37361 24.98 8.85936C22.8353 8.21178 20.5537 8.16744 18.3855 8.7312C16.2172 9.29497 14.2461 10.4451 12.6885 12.0553C11.3288 13.4385 10.2992 15.1109 9.6763 16.9476L2.87427 11.6812C5.30898 6.85308 9.52454 3.15991 14.631 1.38139Z" fill="#E33629"/>
<path d="M1.06971 16.8984C1.43504 15.0864 2.04203 13.3317 2.87439 11.6812L9.67643 16.9608C8.78684 19.5812 8.78684 22.422 9.67643 25.0425C7.41018 26.7925 5.14283 28.5512 2.87439 30.3187C0.791296 26.1723 0.155986 21.4479 1.06971 16.8984Z" fill="#F8BD00"/>
<path d="M21.4167 17.1117H40.9467C41.6144 20.7767 41.4337 24.5459 40.4185 28.1302C39.4841 31.4261 37.669 34.4051 35.1685 36.7467C32.9733 35.0339 30.7683 33.3342 28.5731 31.6214C29.6615 30.8873 30.5904 29.9411 31.3042 28.8393C32.018 27.7376 32.502 26.5031 32.7272 25.2099H21.4167C21.4135 22.5127 21.4167 19.8122 21.4167 17.1117Z" fill="#587DBD"/>
<path d="M2.87109 30.3188C5.13953 28.5688 7.40687 26.81 9.67312 25.0425C10.5499 27.6157 12.2174 29.8459 14.4375 31.4147C15.822 32.3937 17.3955 33.0732 19.0575 33.4097C20.695 33.7143 22.3747 33.7143 24.0122 33.4097C25.645 33.1337 27.202 32.519 28.583 31.605C30.7781 33.3178 32.9831 35.0175 35.1783 36.7303C32.776 38.9147 29.8476 40.4377 26.6798 41.1502C23.1834 41.9721 19.5396 41.9327 16.0617 41.0353C13.3111 40.3009 10.7417 39.0062 8.51484 37.2324C6.15801 35.3608 4.23293 33.0026 2.87109 30.3188Z" fill="#319F43"/>
</g>
<g clip-path="url(#clip1_604_6449)">
<path d="M102 21C102 9.40209 92.5979 0 81 0C69.4021 0 60 9.40193 60 21C60 31.4816 67.6794 40.1696 77.7188 41.7449V27.0703H72.3867V21H77.7188V16.3734C77.7188 11.1103 80.854 8.20312 85.6507 8.20312C87.9484 8.20312 90.3516 8.61328 90.3516 8.61328V13.7812H87.7036C85.0947 13.7812 84.2812 15.4001 84.2812 17.0609V21H90.1055L89.1744 27.0703H84.2812V41.7449C94.3206 40.1696 102 31.4818 102 21Z" fill="#1877F2"/>
<path d="M89.1744 27.0703L90.1055 21H84.2812V17.0609C84.2812 15.3999 85.0948 13.7812 87.7036 13.7812H90.3516V8.61328C90.3516 8.61328 87.9484 8.20312 85.6507 8.20312C80.854 8.20312 77.7188 11.1103 77.7188 16.3734V21H72.3867V27.0703H77.7188V41.7449C78.8042 41.915 79.9013 42.0003 81 42C82.0987 42.0003 83.1958 41.915 84.2812 41.7449V27.0703H89.1744Z" fill="white"/>
</g>
<defs>
<clipPath id="clip0_604_6449">
<rect width="42" height="42" fill="white"/>
</clipPath>
<clipPath id="clip1_604_6449">
<rect width="42" height="42" fill="white" transform="translate(60)"/>
</clipPath>
</defs>
</svg>
