<svg width="244" height="56" viewBox="0 0 244 56" fill="none" xmlns="http://www.w3.org/2000/svg">
<g filter="url(#filter0_d_647_5)">
<path d="M7 23C7 11.9543 15.9543 3 27 3H217C228.046 3 237 11.9543 237 23V25C237 36.0457 228.046 45 217 45H122H27C15.9543 45 7 36.0457 7 25V23Z" fill="url(#paint0_linear_647_5)" fill-opacity="0.28" shape-rendering="crispEdges"/>
<path d="M27 1.5C15.1259 1.5 5.5 11.1259 5.5 23V25C5.5 36.8741 15.1259 46.5 27 46.5H122H217C228.874 46.5 238.5 36.8741 238.5 25V23C238.5 11.1259 228.874 1.5 217 1.5H27Z" stroke="black" stroke-width="3" shape-rendering="crispEdges"/>
</g>
<defs>
<filter id="filter0_d_647_5" x="0" y="0" width="244" height="56" filterUnits="userSpaceOnUse" color-interpolation-filters="sRGB">
<feFlood flood-opacity="0" result="BackgroundImageFix"/>
<feColorMatrix in="SourceAlpha" type="matrix" values="0 0 0 0 0 0 0 0 0 0 0 0 0 0 0 0 0 0 127 0" result="hardAlpha"/>
<feOffset dy="4"/>
<feGaussianBlur stdDeviation="2"/>
<feComposite in2="hardAlpha" operator="out"/>
<feColorMatrix type="matrix" values="0 0 0 0 0 0 0 0 0 0 0 0 0 0 0 0 0 0 0.25 0"/>
<feBlend mode="normal" in2="BackgroundImageFix" result="effect1_dropShadow_647_5"/>
<feBlend mode="normal" in="SourceGraphic" in2="effect1_dropShadow_647_5" result="shape"/>
</filter>
<linearGradient id="paint0_linear_647_5" x1="7" y1="24" x2="237" y2="24" gradientUnits="userSpaceOnUse">
<stop stop-color="#FF0000"/>
<stop offset="1" stop-color="#FFE600"/>
</linearGradient>
</defs>
</svg>
