<svg width="679" height="215" viewBox="0 0 679 215" fill="none" xmlns="http://www.w3.org/2000/svg">
<g style="mix-blend-mode:darken">
<path d="M0.5 20C0.5 9.23044 9.23045 0.5 20 0.5H659C669.77 0.5 678.5 9.23045 678.5 20V195C678.5 205.77 669.77 214.5 659 214.5H20C9.23044 214.5 0.5 205.77 0.5 195V20Z" fill="#FFE793" fill-opacity="0.28"/>
<path d="M0.5 20C0.5 9.23044 9.23045 0.5 20 0.5H659C669.77 0.5 678.5 9.23045 678.5 20V195C678.5 205.77 669.77 214.5 659 214.5H20C9.23044 214.5 0.5 205.77 0.5 195V20Z" stroke="black"/>
</g>
</svg>
