<svg width="159" height="56" viewBox="0 0 159 56" fill="none" xmlns="http://www.w3.org/2000/svg">
<g filter="url(#filter0_d_647_8)">
<path d="M7 23C7 11.9543 15.9543 3 27 3H132C143.046 3 152 11.9543 152 23V25C152 36.0457 143.046 45 132 45H27C15.9543 45 7 36.0457 7 25V23Z" fill="url(#paint0_linear_647_8)" fill-opacity="0.28" shape-rendering="crispEdges"/>
<path d="M27 1.5C15.1259 1.5 5.5 11.1259 5.5 23V25C5.5 36.8741 15.1259 46.5 27 46.5H132C143.874 46.5 153.5 36.8741 153.5 25V23C153.5 11.1259 143.874 1.5 132 1.5H27Z" stroke="black" stroke-width="3" shape-rendering="crispEdges"/>
</g>
<defs>
<filter id="filter0_d_647_8" x="0" y="0" width="159" height="56" filterUnits="userSpaceOnUse" color-interpolation-filters="sRGB">
<feFlood flood-opacity="0" result="BackgroundImageFix"/>
<feColorMatrix in="SourceAlpha" type="matrix" values="0 0 0 0 0 0 0 0 0 0 0 0 0 0 0 0 0 0 127 0" result="hardAlpha"/>
<feOffset dy="4"/>
<feGaussianBlur stdDeviation="2"/>
<feComposite in2="hardAlpha" operator="out"/>
<feColorMatrix type="matrix" values="0 0 0 0 0 0 0 0 0 0 0 0 0 0 0 0 0 0 0.25 0"/>
<feBlend mode="normal" in2="BackgroundImageFix" result="effect1_dropShadow_647_8"/>
<feBlend mode="normal" in="SourceGraphic" in2="effect1_dropShadow_647_8" result="shape"/>
</filter>
<linearGradient id="paint0_linear_647_8" x1="7" y1="24" x2="152" y2="24" gradientUnits="userSpaceOnUse">
<stop stop-color="#FF0000"/>
<stop offset="1" stop-color="#997700"/>
<stop offset="1.0001" stop-color="#FFC700"/>
</linearGradient>
</defs>
</svg>
