<svg width="679" height="217" viewBox="0 0 679 217" fill="none" xmlns="http://www.w3.org/2000/svg">
<g style="mix-blend-mode:darken">
<path d="M0.5 20C0.5 9.23044 9.23045 0.5 20 0.5H659C669.77 0.5 678.5 9.23045 678.5 20V197C678.5 207.77 669.77 216.5 659 216.5H20C9.23044 216.5 0.5 207.77 0.5 197V20Z" fill="#FFE793" fill-opacity="0.28"/>
<path d="M0.5 20C0.5 9.23044 9.23045 0.5 20 0.5H659C669.77 0.5 678.5 9.23045 678.5 20V197C678.5 207.77 669.77 216.5 659 216.5H20C9.23044 216.5 0.5 207.77 0.5 197V20Z" stroke="black"/>
</g>
</svg>
