<svg width="233" height="45" viewBox="0 0 233 45" fill="none" xmlns="http://www.w3.org/2000/svg">
<g filter="url(#filter0_d_629_4300)">
<path d="M7 18.5C7 9.93959 13.9396 3 22.5 3H210.5C219.06 3 226 9.93959 226 18.5C226 27.0604 219.06 34 210.5 34H22.5C13.9396 34 7 27.0604 7 18.5Z" fill="#FFC700" fill-opacity="0.28" shape-rendering="crispEdges"/>
<path d="M22.5 1.5C13.1112 1.5 5.5 9.11116 5.5 18.5C5.5 27.8888 13.1112 35.5 22.5 35.5H210.5C219.889 35.5 227.5 27.8888 227.5 18.5C227.5 9.11116 219.889 1.5 210.5 1.5H22.5Z" stroke="black" stroke-width="3" shape-rendering="crispEdges"/>
</g>
<defs>
<filter id="filter0_d_629_4300" x="0" y="0" width="233" height="45" filterUnits="userSpaceOnUse" color-interpolation-filters="sRGB">
<feFlood flood-opacity="0" result="BackgroundImageFix"/>
<feColorMatrix in="SourceAlpha" type="matrix" values="0 0 0 0 0 0 0 0 0 0 0 0 0 0 0 0 0 0 127 0" result="hardAlpha"/>
<feOffset dy="4"/>
<feGaussianBlur stdDeviation="2"/>
<feComposite in2="hardAlpha" operator="out"/>
<feColorMatrix type="matrix" values="0 0 0 0 0 0 0 0 0 0 0 0 0 0 0 0 0 0 0.25 0"/>
<feBlend mode="normal" in2="BackgroundImageFix" result="effect1_dropShadow_629_4300"/>
<feBlend mode="normal" in="SourceGraphic" in2="effect1_dropShadow_629_4300" result="shape"/>
</filter>
</defs>
</svg>
