<svg width="392" height="469" viewBox="0 0 392 469" fill="none" xmlns="http://www.w3.org/2000/svg">
<g style="mix-blend-mode:darken">
<path d="M0.5 20C0.5 9.23044 9.23045 0.5 20 0.5H372C382.77 0.5 391.5 9.23045 391.5 20V449C391.5 459.77 382.77 468.5 372 468.5H20C9.23044 468.5 0.5 459.77 0.5 449V20Z" fill="#F9F0D9"/>
<path d="M0.5 20C0.5 9.23044 9.23045 0.5 20 0.5H372C382.77 0.5 391.5 9.23045 391.5 20V449C391.5 459.77 382.77 468.5 372 468.5H20C9.23044 468.5 0.5 459.77 0.5 449V20Z" stroke="black"/>
</g>
</svg>
