<svg width="123" height="38" viewBox="0 0 123 38" fill="none" xmlns="http://www.w3.org/2000/svg">
<g filter="url(#filter0_d_612_84)">
<path d="M7 15C7 8.37258 12.3726 3 19 3H104C110.627 3 116 8.37258 116 15C116 21.6274 110.627 27 104 27H19C12.3726 27 7 21.6274 7 15Z" fill="#FFC700" fill-opacity="0.28" shape-rendering="crispEdges"/>
<path d="M19 1.5C11.5442 1.5 5.5 7.54416 5.5 15C5.5 22.4558 11.5442 28.5 19 28.5H104C111.456 28.5 117.5 22.4558 117.5 15C117.5 7.54416 111.456 1.5 104 1.5H19Z" stroke="black" stroke-width="3" shape-rendering="crispEdges"/>
</g>
<defs>
<filter id="filter0_d_612_84" x="0" y="0" width="123" height="38" filterUnits="userSpaceOnUse" color-interpolation-filters="sRGB">
<feFlood flood-opacity="0" result="BackgroundImageFix"/>
<feColorMatrix in="SourceAlpha" type="matrix" values="0 0 0 0 0 0 0 0 0 0 0 0 0 0 0 0 0 0 127 0" result="hardAlpha"/>
<feOffset dy="4"/>
<feGaussianBlur stdDeviation="2"/>
<feComposite in2="hardAlpha" operator="out"/>
<feColorMatrix type="matrix" values="0 0 0 0 0 0 0 0 0 0 0 0 0 0 0 0 0 0 0.25 0"/>
<feBlend mode="normal" in2="BackgroundImageFix" result="effect1_dropShadow_612_84"/>
<feBlend mode="normal" in="SourceGraphic" in2="effect1_dropShadow_612_84" result="shape"/>
</filter>
</defs>
</svg>
